<svg width="631" height="166" viewBox="0 0 631 166" fill="none" xmlns="http://www.w3.org/2000/svg">
<path d="M37.0877 133L8.57848 33.3636H31.5902L48.0827 102.593H48.9098L67.1051 33.3636H86.8086L104.955 102.739H105.831L122.324 33.3636H145.335L116.826 133H96.2955L77.3217 67.8569H76.5433L57.6183 133H37.0877ZM182.249 134.46C174.562 134.46 167.946 132.903 162.399 129.789C156.886 126.643 152.637 122.2 149.653 116.459C146.669 110.686 145.177 103.858 145.177 95.9769C145.177 88.2901 146.669 81.5439 149.653 75.7383C152.637 69.9326 156.837 65.4081 162.253 62.1648C167.702 58.9214 174.092 57.2997 181.422 57.2997C186.352 57.2997 190.941 58.0943 195.19 59.6836C199.471 61.2404 203.201 63.5919 206.38 66.7379C209.59 69.884 212.088 73.8409 213.872 78.6087C215.656 83.344 216.547 88.8902 216.547 95.2472V100.939H153.448V88.0955H197.039C197.039 85.1116 196.39 82.4683 195.093 80.1655C193.795 77.8627 191.995 76.0626 189.692 74.7653C187.422 73.4355 184.779 72.7706 181.762 72.7706C178.616 72.7706 175.827 73.5004 173.394 74.9599C170.994 76.387 169.113 78.3168 167.751 80.7493C166.389 83.1494 165.691 85.8252 165.659 88.7766V100.988C165.659 104.685 166.34 107.88 167.702 110.572C169.097 113.264 171.059 115.34 173.589 116.799C176.119 118.259 179.119 118.989 182.589 118.989C184.892 118.989 187 118.664 188.914 118.016C190.828 117.367 192.465 116.394 193.828 115.097C195.19 113.799 196.228 112.21 196.941 110.329L216.11 111.594C215.137 116.199 213.142 120.221 210.126 123.659C207.142 127.065 203.282 129.724 198.547 131.638C193.844 133.519 188.411 134.46 182.249 134.46ZM250.797 33.3636V133H230.072V33.3636H250.797ZM301.163 134.46C293.509 134.46 286.925 132.838 281.411 129.594C275.93 126.319 271.713 121.778 268.762 115.972C265.843 110.167 264.383 103.485 264.383 95.9283C264.383 88.2739 265.859 81.5601 268.81 75.7869C271.794 69.9813 276.027 65.4568 281.508 62.2134C286.989 58.9376 293.509 57.2997 301.066 57.2997C307.585 57.2997 313.293 58.4835 318.191 60.8512C323.088 63.2189 326.964 66.5433 329.818 70.8246C332.672 75.1058 334.245 80.133 334.537 85.9062H314.98C314.428 82.1764 312.969 79.1763 310.601 76.9059C308.266 74.6031 305.201 73.4517 301.406 73.4517C298.195 73.4517 295.39 74.3274 292.99 76.0788C290.622 77.7978 288.773 80.3114 287.444 83.6197C286.114 86.9279 285.449 90.9335 285.449 95.6364C285.449 100.404 286.098 104.458 287.395 107.799C288.725 111.14 290.59 113.686 292.99 115.437C295.39 117.189 298.195 118.064 301.406 118.064C303.774 118.064 305.898 117.578 307.779 116.605C309.693 115.632 311.266 114.221 312.499 112.372C313.763 110.491 314.591 108.237 314.98 105.61H334.537C334.213 111.318 332.656 116.345 329.867 120.691C327.11 125.005 323.299 128.378 318.434 130.811C313.569 133.243 307.812 134.46 301.163 134.46ZM381.57 134.46C374.013 134.46 367.478 132.854 361.964 129.643C356.483 126.4 352.25 121.891 349.266 116.118C346.282 110.313 344.79 103.583 344.79 95.9283C344.79 88.209 346.282 81.4628 349.266 75.6896C352.25 69.884 356.483 65.3757 361.964 62.1648C367.478 58.9214 374.013 57.2997 381.57 57.2997C389.127 57.2997 395.646 58.9214 401.128 62.1648C406.641 65.3757 410.89 69.884 413.874 75.6896C416.858 81.4628 418.35 88.209 418.35 95.9283C418.35 103.583 416.858 110.313 413.874 116.118C410.89 121.891 406.641 126.4 401.128 129.643C395.646 132.854 389.127 134.46 381.57 134.46ZM381.668 118.405C385.105 118.405 387.976 117.432 390.279 115.486C392.581 113.507 394.317 110.815 395.484 107.41C396.684 104.004 397.284 100.128 397.284 95.7823C397.284 91.4362 396.684 87.5604 395.484 84.1548C394.317 80.7493 392.581 78.0573 390.279 76.0788C387.976 74.1004 385.105 73.1111 381.668 73.1111C378.197 73.1111 375.278 74.1004 372.91 76.0788C370.575 78.0573 368.808 80.7493 367.608 84.1548C366.44 87.5604 365.856 91.4362 365.856 95.7823C365.856 100.128 366.44 104.004 367.608 107.41C368.808 110.815 370.575 113.507 372.91 115.486C375.278 117.432 378.197 118.405 381.668 118.405ZM431.826 133V58.2727H451.578V71.457H452.454C454.011 67.0785 456.606 63.6243 460.238 61.0945C463.871 58.5646 468.217 57.2997 473.277 57.2997C478.401 57.2997 482.763 58.5808 486.364 61.1431C489.964 63.6729 492.364 67.1109 493.564 71.457H494.342C495.867 67.1758 498.623 63.754 502.613 61.1918C506.635 58.5971 511.386 57.2997 516.867 57.2997C523.841 57.2997 529.5 59.5214 533.847 63.9648C538.225 68.3758 540.414 74.6355 540.414 82.744V133H519.738V86.8306C519.738 82.6791 518.635 79.5655 516.43 77.4897C514.224 75.4139 511.467 74.3761 508.159 74.3761C504.397 74.3761 501.461 75.5761 499.353 77.9762C497.245 80.3439 496.191 83.4737 496.191 87.3658V133H476.098V86.3928C476.098 82.7277 475.044 79.8087 472.936 77.6357C470.86 75.4626 468.12 74.3761 464.714 74.3761C462.411 74.3761 460.335 74.9599 458.487 76.1275C456.67 77.2627 455.227 78.8681 454.157 80.9439C453.087 82.9872 452.551 85.3873 452.551 88.1442V133H431.826ZM590.841 134.46C583.154 134.46 576.537 132.903 570.991 129.789C565.477 126.643 561.229 122.2 558.245 116.459C555.261 110.686 553.769 103.858 553.769 95.9769C553.769 88.2901 555.261 81.5439 558.245 75.7383C561.229 69.9326 565.429 65.4081 570.845 62.1648C576.294 58.9214 582.684 57.2997 590.014 57.2997C594.944 57.2997 599.533 58.0943 603.782 59.6836C608.063 61.2404 611.793 63.5919 614.971 66.7379C618.182 69.884 620.68 73.8409 622.464 78.6087C624.247 83.344 625.139 88.8902 625.139 95.2472V100.939H562.04V88.0955H605.63C605.63 85.1116 604.982 82.4683 603.684 80.1655C602.387 77.8627 600.587 76.0626 598.284 74.7653C596.014 73.4355 593.37 72.7706 590.354 72.7706C587.208 72.7706 584.419 73.5004 581.986 74.9599C579.586 76.387 577.705 78.3168 576.343 80.7493C574.981 83.1494 574.283 85.8252 574.251 88.7766V100.988C574.251 104.685 574.932 107.88 576.294 110.572C577.689 113.264 579.651 115.34 582.181 116.799C584.711 118.259 587.711 118.989 591.181 118.989C593.484 118.989 595.592 118.664 597.506 118.016C599.419 117.367 601.057 116.394 602.419 115.097C603.782 113.799 604.82 112.21 605.533 110.329L624.701 111.594C623.728 116.199 621.734 120.221 618.717 123.659C615.734 127.065 611.874 129.724 607.139 131.638C602.436 133.519 597.003 134.46 590.841 134.46Z" fill="white"/>
<mask id="path-2-outside-1_12_30" maskUnits="userSpaceOnUse" x="1" y="32" width="620" height="104" fill="black">
<rect fill="white" x="1" y="32" width="620" height="104"/>
<path d="M31.0877 133L2.57848 33.3636H25.5902L42.0827 102.593H42.9098L61.1051 33.3636H80.8086L98.9553 102.739H99.831L116.324 33.3636H139.335L110.826 133H90.2955L71.3217 67.8569H70.5433L51.6183 133H31.0877ZM176.249 134.46C168.562 134.46 161.946 132.903 156.399 129.789C150.886 126.643 146.637 122.2 143.653 116.459C140.669 110.686 139.177 103.858 139.177 95.9769C139.177 88.2901 140.669 81.5439 143.653 75.7383C146.637 69.9326 150.837 65.4081 156.253 62.1648C161.702 58.9214 168.092 57.2997 175.422 57.2997C180.352 57.2997 184.941 58.0943 189.19 59.6836C193.471 61.2404 197.201 63.5919 200.38 66.7379C203.59 69.884 206.088 73.8409 207.872 78.6087C209.656 83.344 210.547 88.8902 210.547 95.2472V100.939H147.448V88.0955H191.039C191.039 85.1116 190.39 82.4683 189.093 80.1655C187.795 77.8627 185.995 76.0626 183.692 74.7653C181.422 73.4355 178.779 72.7706 175.762 72.7706C172.616 72.7706 169.827 73.5004 167.394 74.9599C164.994 76.387 163.113 78.3168 161.751 80.7493C160.389 83.1494 159.691 85.8252 159.659 88.7766V100.988C159.659 104.685 160.34 107.88 161.702 110.572C163.097 113.264 165.059 115.34 167.589 116.799C170.119 118.259 173.119 118.989 176.589 118.989C178.892 118.989 181 118.664 182.914 118.016C184.828 117.367 186.465 116.394 187.828 115.097C189.19 113.799 190.228 112.21 190.941 110.329L210.11 111.594C209.137 116.199 207.142 120.221 204.126 123.659C201.142 127.065 197.282 129.724 192.547 131.638C187.844 133.519 182.411 134.46 176.249 134.46ZM244.797 33.3636V133H224.072V33.3636H244.797ZM295.163 134.46C287.509 134.46 280.925 132.838 275.411 129.594C269.93 126.319 265.713 121.778 262.762 115.972C259.843 110.167 258.383 103.485 258.383 95.9283C258.383 88.2739 259.859 81.5601 262.81 75.7869C265.794 69.9813 270.027 65.4568 275.508 62.2134C280.989 58.9376 287.509 57.2997 295.066 57.2997C301.585 57.2997 307.293 58.4835 312.191 60.8512C317.088 63.2189 320.964 66.5433 323.818 70.8246C326.672 75.1058 328.245 80.133 328.537 85.9062H308.98C308.428 82.1764 306.969 79.1763 304.601 76.9059C302.266 74.6031 299.201 73.4517 295.406 73.4517C292.195 73.4517 289.39 74.3274 286.99 76.0788C284.622 77.7978 282.773 80.3114 281.444 83.6197C280.114 86.9279 279.449 90.9335 279.449 95.6364C279.449 100.404 280.098 104.458 281.395 107.799C282.725 111.14 284.59 113.686 286.99 115.437C289.39 117.189 292.195 118.064 295.406 118.064C297.774 118.064 299.898 117.578 301.779 116.605C303.693 115.632 305.266 114.221 306.499 112.372C307.763 110.491 308.591 108.237 308.98 105.61H328.537C328.213 111.318 326.656 116.345 323.867 120.691C321.11 125.005 317.299 128.378 312.434 130.811C307.569 133.243 301.812 134.46 295.163 134.46ZM375.57 134.46C368.013 134.46 361.478 132.854 355.964 129.643C350.483 126.4 346.25 121.891 343.266 116.118C340.282 110.313 338.79 103.583 338.79 95.9283C338.79 88.209 340.282 81.4628 343.266 75.6896C346.25 69.884 350.483 65.3757 355.964 62.1648C361.478 58.9214 368.013 57.2997 375.57 57.2997C383.127 57.2997 389.646 58.9214 395.128 62.1648C400.641 65.3757 404.89 69.884 407.874 75.6896C410.858 81.4628 412.35 88.209 412.35 95.9283C412.35 103.583 410.858 110.313 407.874 116.118C404.89 121.891 400.641 126.4 395.128 129.643C389.646 132.854 383.127 134.46 375.57 134.46ZM375.668 118.405C379.105 118.405 381.976 117.432 384.279 115.486C386.581 113.507 388.317 110.815 389.484 107.41C390.684 104.004 391.284 100.128 391.284 95.7823C391.284 91.4362 390.684 87.5604 389.484 84.1548C388.317 80.7493 386.581 78.0573 384.279 76.0788C381.976 74.1004 379.105 73.1111 375.668 73.1111C372.197 73.1111 369.278 74.1004 366.91 76.0788C364.575 78.0573 362.808 80.7493 361.608 84.1548C360.44 87.5604 359.856 91.4362 359.856 95.7823C359.856 100.128 360.44 104.004 361.608 107.41C362.808 110.815 364.575 113.507 366.91 115.486C369.278 117.432 372.197 118.405 375.668 118.405ZM425.826 133V58.2727H445.578V71.457H446.454C448.011 67.0785 450.606 63.6243 454.238 61.0945C457.871 58.5646 462.217 57.2997 467.277 57.2997C472.401 57.2997 476.763 58.5808 480.364 61.1431C483.964 63.6729 486.364 67.1109 487.564 71.457H488.342C489.867 67.1758 492.623 63.754 496.613 61.1918C500.635 58.5971 505.386 57.2997 510.867 57.2997C517.841 57.2997 523.5 59.5214 527.847 63.9648C532.225 68.3758 534.414 74.6355 534.414 82.744V133H513.738V86.8306C513.738 82.6791 512.635 79.5655 510.43 77.4897C508.224 75.4139 505.467 74.3761 502.159 74.3761C498.397 74.3761 495.461 75.5761 493.353 77.9762C491.245 80.3439 490.191 83.4737 490.191 87.3658V133H470.098V86.3928C470.098 82.7277 469.044 79.8087 466.936 77.6357C464.86 75.4626 462.12 74.3761 458.714 74.3761C456.411 74.3761 454.335 74.9599 452.487 76.1275C450.67 77.2627 449.227 78.8681 448.157 80.9439C447.087 82.9872 446.551 85.3873 446.551 88.1442V133H425.826ZM584.841 134.46C577.154 134.46 570.537 132.903 564.991 129.789C559.477 126.643 555.229 122.2 552.245 116.459C549.261 110.686 547.769 103.858 547.769 95.9769C547.769 88.2901 549.261 81.5439 552.245 75.7383C555.229 69.9326 559.429 65.4081 564.845 62.1648C570.294 58.9214 576.684 57.2997 584.014 57.2997C588.944 57.2997 593.533 58.0943 597.782 59.6836C602.063 61.2404 605.793 63.5919 608.971 66.7379C612.182 69.884 614.68 73.8409 616.464 78.6087C618.247 83.344 619.139 88.8902 619.139 95.2472V100.939H556.04V88.0955H599.63C599.63 85.1116 598.982 82.4683 597.684 80.1655C596.387 77.8627 594.587 76.0626 592.284 74.7653C590.014 73.4355 587.37 72.7706 584.354 72.7706C581.208 72.7706 578.419 73.5004 575.986 74.9599C573.586 76.387 571.705 78.3168 570.343 80.7493C568.981 83.1494 568.283 85.8252 568.251 88.7766V100.988C568.251 104.685 568.932 107.88 570.294 110.572C571.689 113.264 573.651 115.34 576.181 116.799C578.711 118.259 581.711 118.989 585.181 118.989C587.484 118.989 589.592 118.664 591.506 118.016C593.419 117.367 595.057 116.394 596.419 115.097C597.782 113.799 598.82 112.21 599.533 110.329L618.701 111.594C617.728 116.199 615.734 120.221 612.717 123.659C609.734 127.065 605.874 129.724 601.139 131.638C596.436 133.519 591.003 134.46 584.841 134.46Z"/>
</mask>
<path d="M31.0877 133L30.1263 133.275L30.3337 134H31.0877V133ZM2.57848 33.3636V32.3636H1.25222L1.61706 33.6387L2.57848 33.3636ZM25.5902 33.3636L26.563 33.1319L26.38 32.3636H25.5902V33.3636ZM42.0827 102.593L41.11 102.825L41.293 103.593H42.0827V102.593ZM42.9098 102.593V103.593H43.6809L43.877 102.848L42.9098 102.593ZM61.1051 33.3636V32.3636H60.334L60.138 33.1094L61.1051 33.3636ZM80.8086 33.3636L81.776 33.1106L81.5807 32.3636H80.8086V33.3636ZM98.9553 102.739L97.9878 102.992L98.1832 103.739H98.9553V102.739ZM99.831 102.739V103.739H100.621L100.804 102.971L99.831 102.739ZM116.324 33.3636V32.3636H115.533L115.351 33.1324L116.324 33.3636ZM139.335 33.3636L140.297 33.6387L140.661 32.3636H139.335V33.3636ZM110.826 133V134H111.58L111.787 133.275L110.826 133ZM90.2955 133L89.3354 133.28L89.5452 134H90.2955V133ZM71.3217 67.8569L72.2818 67.5772L72.072 66.8569H71.3217V67.8569ZM70.5433 67.8569V66.8569H69.7925L69.583 67.5779L70.5433 67.8569ZM51.6183 133V134H52.3691L52.5786 133.279L51.6183 133ZM32.0491 132.725L3.5399 33.0885L1.61706 33.6387L30.1263 133.275L32.0491 132.725ZM2.57848 34.3636H25.5902V32.3636H2.57848V34.3636ZM24.6174 33.5954L41.11 102.825L43.0555 102.362L26.563 33.1319L24.6174 33.5954ZM42.0827 103.593H42.9098V101.593H42.0827V103.593ZM43.877 102.848L62.0723 33.6178L60.138 33.1094L41.9427 102.339L43.877 102.848ZM61.1051 34.3636H80.8086V32.3636H61.1051V34.3636ZM79.8411 33.6167L97.9878 102.992L99.9227 102.486L81.776 33.1106L79.8411 33.6167ZM98.9553 103.739H99.831V101.739H98.9553V103.739ZM100.804 102.971L117.296 33.5949L115.351 33.1324L98.8581 102.508L100.804 102.971ZM116.324 34.3636H139.335V32.3636H116.324V34.3636ZM138.374 33.0885L109.865 132.725L111.787 133.275L140.297 33.6387L138.374 33.0885ZM110.826 132H90.2955V134H110.826V132ZM91.2556 132.72L72.2818 67.5772L70.3616 68.1365L89.3354 133.28L91.2556 132.72ZM71.3217 66.8569H70.5433V68.8569H71.3217V66.8569ZM69.583 67.5779L50.658 132.721L52.5786 133.279L71.5036 68.1359L69.583 67.5779ZM51.6183 132H31.0877V134H51.6183V132ZM156.399 129.789L155.904 130.658L155.91 130.661L156.399 129.789ZM143.653 116.459L142.765 116.918L142.766 116.92L143.653 116.459ZM143.653 75.7383L142.764 75.2812L142.764 75.2812L143.653 75.7383ZM156.253 62.1648L155.742 61.3055L155.74 61.3068L156.253 62.1648ZM189.19 59.6836L188.84 60.6203L188.848 60.6234L189.19 59.6836ZM200.38 66.7379L199.676 67.4487L199.68 67.4522L200.38 66.7379ZM207.872 78.6087L206.935 78.9591L206.936 78.9612L207.872 78.6087ZM210.547 100.939V101.939H211.547V100.939H210.547ZM147.448 100.939H146.448V101.939H147.448V100.939ZM147.448 88.0955V87.0955H146.448V88.0955H147.448ZM191.039 88.0955V89.0955H192.039V88.0955H191.039ZM189.093 80.1655L188.221 80.6563L188.221 80.6563L189.093 80.1655ZM183.692 74.7653L183.187 75.6282L183.194 75.6324L183.202 75.6365L183.692 74.7653ZM167.394 74.9599L167.906 75.8194L167.909 75.8174L167.394 74.9599ZM161.751 80.7493L162.621 81.2429L162.623 81.2379L161.751 80.7493ZM159.659 88.7766L158.659 88.7656V88.7766H159.659ZM161.702 110.572L160.81 111.024L160.814 111.032L161.702 110.572ZM182.914 118.016L182.593 117.069L182.593 117.069L182.914 118.016ZM187.828 115.097L187.138 114.372L187.138 114.372L187.828 115.097ZM190.941 110.329L191.007 109.331L190.269 109.282L190.006 109.974L190.941 110.329ZM210.11 111.594L211.088 111.8L211.326 110.672L210.175 110.596L210.11 111.594ZM204.126 123.659L203.374 123L203.373 123L204.126 123.659ZM192.547 131.638L192.918 132.566L192.921 132.565L192.547 131.638ZM176.249 133.46C168.698 133.46 162.257 131.931 156.889 128.917L155.91 130.661C161.634 133.874 168.426 135.46 176.249 135.46V133.46ZM156.895 128.921C151.552 125.872 147.437 121.571 144.54 115.998L142.766 116.92C145.836 122.828 150.22 127.414 155.904 130.658L156.895 128.921ZM144.541 116C141.645 110.396 140.177 103.732 140.177 95.9769H138.177C138.177 103.984 139.693 110.976 142.765 116.918L144.541 116ZM140.177 95.9769C140.177 88.421 141.643 81.8365 144.542 76.1954L142.764 75.2812C139.695 81.2513 138.177 88.1593 138.177 95.9769H140.177ZM144.542 76.1954C147.444 70.5499 151.517 66.1668 156.767 63.0227L155.74 61.3068C150.157 64.6495 145.83 69.3154 142.764 75.2812L144.542 76.1954ZM156.765 63.0241C162.036 59.8864 168.243 58.2997 175.422 58.2997V56.2997C167.94 56.2997 161.368 57.9564 155.742 61.3055L156.765 63.0241ZM175.422 58.2997C180.242 58.2997 184.712 59.0764 188.84 60.6202L189.54 58.747C185.17 57.1123 180.461 56.2997 175.422 56.2997V58.2997ZM188.848 60.6234C192.996 62.1318 196.602 64.4061 199.676 67.4486L201.083 66.0272C197.8 62.7776 193.946 60.349 189.532 58.7438L188.848 60.6234ZM199.68 67.4522C202.773 70.483 205.196 74.3103 206.935 78.9591L208.808 78.2582C206.98 73.3715 204.408 69.285 201.079 66.0236L199.68 67.4522ZM206.936 78.9612C208.668 83.5591 209.547 88.9809 209.547 95.2472H211.547C211.547 88.7994 210.643 83.1289 208.808 78.2561L206.936 78.9612ZM209.547 95.2472V100.939H211.547V95.2472H209.547ZM210.547 99.9393H147.448V101.939H210.547V99.9393ZM148.448 100.939V88.0955H146.448V100.939H148.448ZM147.448 89.0955H191.039V87.0955H147.448V89.0955ZM192.039 88.0955C192.039 84.9622 191.356 82.1458 189.964 79.6746L188.221 80.6563C189.424 82.7908 190.039 85.261 190.039 88.0955H192.039ZM189.964 79.6746C188.577 77.2127 186.645 75.281 184.183 73.894L183.202 75.6365C185.345 76.8442 187.014 78.5127 188.221 80.6563L189.964 79.6746ZM184.198 73.9024C181.753 72.4703 178.93 71.7706 175.762 71.7706V73.7706C178.627 73.7706 181.091 74.4006 183.187 75.6282L184.198 73.9024ZM175.762 71.7706C172.455 71.7706 169.484 72.5397 166.88 74.1024L167.909 75.8174C170.17 74.461 172.777 73.7706 175.762 73.7706V71.7706ZM166.883 74.1003C164.333 75.617 162.327 77.6747 160.878 80.2607L162.623 81.2379C163.9 78.9589 165.656 77.1569 167.906 75.8194L166.883 74.1003ZM160.881 80.2557C159.43 82.8132 158.693 85.657 158.659 88.7656L160.659 88.7876C160.69 85.9933 161.348 83.4855 162.621 81.2429L160.881 80.2557ZM158.659 88.7766V100.988H160.659V88.7766H158.659ZM158.659 100.988C158.659 104.807 159.363 108.164 160.81 111.024L162.595 110.121C161.317 107.597 160.659 104.563 160.659 100.988H158.659ZM160.814 111.032C162.293 113.887 164.387 116.107 167.089 117.666L168.089 115.933C165.731 114.573 163.9 112.641 162.59 110.112L160.814 111.032ZM167.089 117.666C169.797 119.228 172.977 119.989 176.589 119.989V117.989C173.261 117.989 170.44 117.29 168.089 115.933L167.089 117.666ZM176.589 119.989C178.986 119.989 181.205 119.651 183.235 118.963L182.593 117.069C180.796 117.678 178.798 117.989 176.589 117.989V119.989ZM183.235 118.963C185.276 118.271 187.042 117.226 188.517 115.821L187.138 114.372C185.889 115.562 184.379 116.463 182.593 117.069L183.235 118.963ZM188.517 115.821C189.995 114.413 191.113 112.695 191.876 110.683L190.006 109.974C189.342 111.725 188.384 113.185 187.138 114.372L188.517 115.821ZM190.875 111.327L210.044 112.592L210.175 110.596L191.007 109.331L190.875 111.327ZM209.131 111.387C208.193 115.83 206.274 119.694 203.374 123L204.877 124.319C208.01 120.748 210.081 116.569 211.088 111.8L209.131 111.387ZM203.373 123C200.505 126.274 196.781 128.848 192.172 130.711L192.921 132.565C197.783 130.6 201.778 127.856 204.878 124.318L203.373 123ZM192.175 130.709C187.613 132.534 182.311 133.46 176.249 133.46V135.46C182.512 135.46 188.075 134.504 192.918 132.566L192.175 130.709ZM244.797 33.3636H245.797V32.3636H244.797V33.3636ZM244.797 133V134H245.797V133H244.797ZM224.072 133H223.072V134H224.072V133ZM224.072 33.3636V32.3636H223.072V33.3636H224.072ZM243.797 33.3636V133H245.797V33.3636H243.797ZM244.797 132H224.072V134H244.797V132ZM225.072 133V33.3636H223.072V133H225.072ZM224.072 34.3636H244.797V32.3636H224.072V34.3636ZM275.411 129.594L274.898 130.453L274.904 130.456L275.411 129.594ZM262.762 115.972L261.868 116.422L261.87 116.425L262.762 115.972ZM262.81 75.7869L261.921 75.3298L261.92 75.3317L262.81 75.7869ZM275.508 62.2134L276.017 63.074L276.021 63.0718L275.508 62.2134ZM312.191 60.8512L312.626 59.9509L312.626 59.9509L312.191 60.8512ZM323.818 70.8246L322.986 71.3793L323.818 70.8246ZM328.537 85.9062V86.9062H329.589L329.536 85.8558L328.537 85.9062ZM308.98 85.9062L307.991 86.0525L308.117 86.9062H308.98V85.9062ZM304.601 76.9059L303.899 77.618L303.909 77.6277L304.601 76.9059ZM286.99 76.0788L287.577 76.8881L287.579 76.8866L286.99 76.0788ZM281.395 107.799L280.463 108.161L280.466 108.169L281.395 107.799ZM286.99 115.437L287.579 114.629L287.579 114.629L286.99 115.437ZM301.779 116.605L301.326 115.713L301.32 115.717L301.779 116.605ZM306.499 112.372L305.669 111.814L305.667 111.817L306.499 112.372ZM308.98 105.61V104.61H308.117L307.991 105.463L308.98 105.61ZM328.537 105.61L329.536 105.666L329.596 104.61H328.537V105.61ZM323.867 120.691L323.025 120.151L323.024 120.153L323.867 120.691ZM312.434 130.811L311.987 129.916L311.987 129.916L312.434 130.811ZM295.163 133.46C287.652 133.46 281.25 131.869 275.918 128.733L274.904 130.456C280.599 133.806 287.366 135.46 295.163 135.46V133.46ZM275.924 128.736C270.608 125.559 266.521 121.16 263.653 115.519L261.87 116.425C264.905 122.396 269.251 127.078 274.898 130.453L275.924 128.736ZM263.655 115.523C260.817 109.878 259.383 103.355 259.383 95.9283H257.383C257.383 103.616 258.869 110.455 261.868 116.422L263.655 115.523ZM259.383 95.9283C259.383 88.4037 260.833 81.8511 263.701 76.2421L261.92 75.3317C258.885 81.2692 257.383 88.1441 257.383 95.9283H259.383ZM263.7 76.2441C266.6 70.6017 270.703 66.2189 276.017 63.074L274.999 61.3528C269.351 64.6946 264.989 69.3609 261.921 75.3298L263.7 76.2441ZM276.021 63.0718C281.321 59.9044 287.656 58.2997 295.066 58.2997V56.2997C287.361 56.2997 280.658 57.9708 274.995 61.355L276.021 63.0718ZM295.066 58.2997C301.464 58.2997 307.018 59.4612 311.755 61.7515L312.626 59.9509C307.568 57.5059 301.706 56.2997 295.066 56.2997V58.2997ZM311.755 61.7515C316.502 64.0461 320.237 67.2552 322.986 71.3793L324.65 70.2699C321.691 65.8315 317.675 62.3916 312.626 59.9509L311.755 61.7515ZM322.986 71.3793C325.728 75.4927 327.255 80.3408 327.539 85.9567L329.536 85.8558C329.236 79.9253 327.616 74.719 324.65 70.2699L322.986 71.3793ZM328.537 84.9062H308.98V86.9062H328.537V84.9062ZM309.969 85.76C309.39 81.845 307.844 78.6304 305.293 76.1841L303.909 77.6277C306.093 79.7221 307.467 82.5078 307.991 86.0525L309.969 85.76ZM305.303 76.1939C302.751 73.6774 299.419 72.4517 295.406 72.4517V74.4517C298.983 74.4517 301.78 75.5288 303.899 77.6179L305.303 76.1939ZM295.406 72.4517C292.001 72.4517 288.986 73.3845 286.4 75.271L287.579 76.8866C289.794 75.2704 292.389 74.4517 295.406 74.4517V72.4517ZM286.402 75.2696C283.852 77.1211 281.9 79.8022 280.516 83.2467L282.371 83.9926C283.646 80.8206 285.392 78.4745 287.577 76.888L286.402 75.2696ZM280.516 83.2467C279.126 86.7047 278.449 90.8443 278.449 95.6364H280.449C280.449 91.0227 281.102 87.1511 282.371 83.9926L280.516 83.2467ZM278.449 95.6364C278.449 100.489 279.108 104.674 280.463 108.161L282.327 107.437C281.087 104.243 280.449 100.319 280.449 95.6364H278.449ZM280.466 108.169C281.851 111.648 283.819 114.361 286.4 116.245L287.579 114.629C285.361 113.01 283.599 110.632 282.324 107.429L280.466 108.169ZM286.4 116.245C288.986 118.132 292.001 119.064 295.406 119.064V117.064C292.389 117.064 289.794 116.246 287.579 114.629L286.4 116.245ZM295.406 119.064C297.915 119.064 300.2 118.548 302.239 117.493L301.32 115.717C299.597 116.608 297.633 117.064 295.406 117.064V119.064ZM302.233 117.496C304.305 116.443 306.006 114.913 307.331 112.927L305.667 111.817C304.526 113.528 303.081 114.821 301.326 115.713L302.233 117.496ZM307.328 112.93C308.69 110.906 309.562 108.506 309.969 105.756L307.991 105.463C307.619 107.968 306.837 110.076 305.669 111.814L307.328 112.93ZM308.98 106.61H328.537V104.61H308.98V106.61ZM327.539 105.553C327.223 111.108 325.712 115.965 323.025 120.151L324.708 121.232C327.6 116.725 329.203 111.528 329.536 105.666L327.539 105.553ZM323.024 120.153C320.371 124.305 316.701 127.559 311.987 129.916L312.881 131.705C317.897 129.197 321.849 125.705 324.709 121.23L323.024 120.153ZM311.987 129.916C307.288 132.266 301.691 133.46 295.163 133.46V135.46C301.933 135.46 307.85 134.221 312.881 131.705L311.987 129.916ZM355.964 129.643L355.455 130.504L355.461 130.507L355.964 129.643ZM343.266 116.118L342.377 116.575L342.378 116.577L343.266 116.118ZM343.266 75.6896L344.155 76.1488L344.156 76.1468L343.266 75.6896ZM355.964 62.1648L356.47 63.0276L356.471 63.0267L355.964 62.1648ZM395.128 62.1648L394.618 63.0254L394.625 63.0289L395.128 62.1648ZM407.874 75.6896L406.985 76.1468L406.986 76.1488L407.874 75.6896ZM407.874 116.118L408.763 116.577L408.764 116.575L407.874 116.118ZM395.128 129.643L395.633 130.506L395.635 130.505L395.128 129.643ZM384.279 115.486L384.924 116.25L384.93 116.244L384.279 115.486ZM389.484 107.41L388.541 107.077L388.538 107.085L389.484 107.41ZM389.484 84.1548L388.538 84.4792L388.541 84.4872L389.484 84.1548ZM366.91 76.0788L366.269 75.3115L366.264 75.3158L366.91 76.0788ZM361.608 84.1548L360.664 83.8225L360.662 83.8305L361.608 84.1548ZM361.608 107.41L360.662 107.734L360.664 107.742L361.608 107.41ZM366.91 115.486L366.264 116.249L366.27 116.254L366.275 116.258L366.91 115.486ZM375.57 133.46C368.157 133.46 361.802 131.886 356.467 128.779L355.461 130.507C361.153 133.822 367.869 135.46 375.57 135.46V133.46ZM356.473 128.782C351.157 125.637 347.054 121.269 344.155 115.659L342.378 116.577C345.446 122.514 349.809 127.163 355.455 130.504L356.473 128.782ZM344.156 115.661C341.256 110.019 339.79 103.451 339.79 95.9283H337.79C337.79 103.714 339.309 110.606 342.377 116.575L344.156 115.661ZM339.79 95.9283C339.79 88.3389 341.257 81.7557 344.155 76.1488L342.378 75.2305C339.308 81.17 337.79 88.0791 337.79 95.9283H339.79ZM344.156 76.1468C347.055 70.5052 351.157 66.1398 356.47 63.0276L355.459 61.3019C349.809 64.6116 345.445 69.2628 342.377 75.2325L344.156 76.1468ZM356.471 63.0267C361.805 59.8889 368.159 58.2997 375.57 58.2997V56.2997C367.867 56.2997 361.15 57.9539 355.457 61.3028L356.471 63.0267ZM375.57 58.2997C382.982 58.2997 389.318 59.889 394.619 63.0254L395.637 61.3041C389.975 57.9538 383.273 56.2997 375.57 56.2997V58.2997ZM394.625 63.0289C399.969 66.1415 404.086 70.5067 406.985 76.1468L408.764 75.2325C405.695 69.2613 401.314 64.6099 395.631 61.3006L394.625 63.0289ZM406.986 76.1488C409.884 81.7557 411.35 88.339 411.35 95.9283H413.35C413.35 88.0791 411.832 81.17 408.763 75.2305L406.986 76.1488ZM411.35 95.9283C411.35 103.451 409.884 110.019 406.985 115.661L408.764 116.575C411.832 110.606 413.35 103.714 413.35 95.9283H411.35ZM406.986 115.659C404.087 121.268 399.969 125.635 394.621 128.781L395.635 130.505C401.314 127.164 405.694 122.515 408.763 116.577L406.986 115.659ZM394.622 128.78C389.321 131.886 382.983 133.46 375.57 133.46V135.46C383.271 135.46 389.972 133.822 395.633 130.506L394.622 128.78ZM375.668 119.405C379.307 119.405 382.416 118.369 384.924 116.25L383.633 114.722C381.536 116.494 378.904 117.405 375.668 117.405V119.405ZM384.93 116.244C387.391 114.13 389.216 111.277 390.43 107.734L388.538 107.085C387.418 110.354 385.772 112.885 383.627 114.727L384.93 116.244ZM390.427 107.742C391.672 104.211 392.284 100.219 392.284 95.7823H390.284C390.284 100.038 389.697 103.798 388.541 107.077L390.427 107.742ZM392.284 95.7823C392.284 91.3454 391.672 87.354 390.427 83.8225L388.541 84.4872C389.697 87.7667 390.284 91.527 390.284 95.7823H392.284ZM390.43 83.8305C389.216 80.2881 387.391 77.4347 384.93 75.3203L383.627 76.8373C385.772 78.6799 387.418 81.2105 388.538 84.4792L390.43 83.8305ZM384.93 75.3203C382.422 73.1654 379.311 72.1111 375.668 72.1111V74.1111C378.9 74.1111 381.53 75.0354 383.627 76.8373L384.93 75.3203ZM375.668 72.1111C371.994 72.1111 368.839 73.1639 366.269 75.3115L367.552 76.8462C369.717 75.0368 372.4 74.1111 375.668 74.1111V72.1111ZM366.264 75.3158C363.771 77.4281 361.913 80.2799 360.664 83.8225L362.551 84.4872C363.702 81.2187 365.38 78.6865 367.557 76.8418L366.264 75.3158ZM360.662 83.8305C359.452 87.3595 358.856 91.348 358.856 95.7823H360.856C360.856 91.5244 361.428 87.7612 362.553 84.4792L360.662 83.8305ZM358.856 95.7823C358.856 100.217 359.452 104.205 360.662 107.734L362.553 107.085C361.428 103.803 360.856 100.04 360.856 95.7823H358.856ZM360.664 107.742C361.913 111.285 363.771 114.137 366.264 116.249L367.557 114.723C365.38 112.878 363.702 110.346 362.551 107.077L360.664 107.742ZM366.275 116.258C368.846 118.371 371.998 119.405 375.668 119.405V117.405C372.396 117.405 369.711 116.493 367.545 114.713L366.275 116.258ZM425.826 133H424.826V134H425.826V133ZM425.826 58.2727V57.2727H424.826V58.2727H425.826ZM445.578 58.2727H446.578V57.2727H445.578V58.2727ZM445.578 71.457H444.578V72.457H445.578V71.457ZM446.454 71.457V72.457H447.16L447.396 71.792L446.454 71.457ZM454.238 61.0945L453.667 60.2738L453.667 60.2738L454.238 61.0945ZM480.364 61.1431L479.784 61.9578L479.789 61.9613L480.364 61.1431ZM487.564 71.457L486.6 71.7232L486.803 72.457H487.564V71.457ZM488.342 71.457V72.457H489.048L489.284 71.7925L488.342 71.457ZM496.613 61.1918L497.153 62.0332L497.155 62.0321L496.613 61.1918ZM527.847 63.9648L527.132 64.6641L527.137 64.6693L527.847 63.9648ZM534.414 133V134H535.414V133H534.414ZM513.738 133H512.738V134H513.738V133ZM510.43 77.4897L509.744 78.2179L509.744 78.2179L510.43 77.4897ZM493.353 77.9762L494.1 78.6412L494.105 78.6361L493.353 77.9762ZM490.191 133V134H491.191V133H490.191ZM470.098 133H469.098V134H470.098V133ZM466.936 77.6357L466.213 78.3264L466.218 78.332L466.936 77.6357ZM452.487 76.1275L453.017 76.9755L453.021 76.973L452.487 76.1275ZM448.157 80.9439L449.043 81.4079L449.046 81.4022L448.157 80.9439ZM446.551 133V134H447.551V133H446.551ZM426.826 133V58.2727H424.826V133H426.826ZM425.826 59.2727H445.578V57.2727H425.826V59.2727ZM444.578 58.2727V71.457H446.578V58.2727H444.578ZM445.578 72.457H446.454V70.457H445.578V72.457ZM447.396 71.792C448.887 67.5997 451.357 64.3195 454.81 61.9151L453.667 60.2738C449.854 62.9291 447.135 66.5573 445.512 71.122L447.396 71.792ZM454.81 61.9151C458.251 59.5182 462.391 58.2997 467.277 58.2997V56.2997C462.043 56.2997 457.49 57.6111 453.667 60.2738L454.81 61.9151ZM467.277 58.2997C472.228 58.2997 476.379 59.5345 479.784 61.9578L480.943 60.3284C477.148 57.6271 472.575 56.2997 467.277 56.2997V58.2997ZM479.789 61.9613C483.194 64.3542 485.46 67.5946 486.6 71.7232L488.528 71.1909C487.268 66.6272 484.733 62.9916 480.938 60.3249L479.789 61.9613ZM487.564 72.457H488.342V70.457H487.564V72.457ZM489.284 71.7925C490.731 67.7292 493.341 64.4814 497.153 62.0332L496.072 60.3504C491.906 63.0266 489.002 66.6224 487.4 71.1216L489.284 71.7925ZM497.155 62.0321C500.993 59.5561 505.55 58.2997 510.867 58.2997V56.2997C505.223 56.2997 500.277 57.638 496.071 60.3515L497.155 62.0321ZM510.867 58.2997C517.608 58.2997 522.997 60.4373 527.132 64.6641L528.561 63.2656C524.003 58.6056 518.074 56.2997 510.867 56.2997V58.2997ZM527.137 64.6693C531.278 68.841 533.414 74.8159 533.414 82.744H535.414C535.414 74.4552 533.172 67.9106 528.556 63.2604L527.137 64.6693ZM533.414 82.744V133H535.414V82.744H533.414ZM534.414 132H513.738V134H534.414V132ZM514.738 133V86.8306H512.738V133H514.738ZM514.738 86.8306C514.738 82.5089 513.587 79.0881 511.115 76.7615L509.744 78.2179C511.683 80.0428 512.738 82.8493 512.738 86.8306H514.738ZM511.115 76.7615C508.706 74.4943 505.696 73.3761 502.159 73.3761V75.3761C505.238 75.3761 507.742 76.3335 509.744 78.2179L511.115 76.7615ZM502.159 73.3761C498.165 73.3761 494.934 74.6611 492.602 77.3163L494.105 78.6361C495.989 76.4911 498.628 75.3761 502.159 75.3761V73.3761ZM492.606 77.3112C490.3 79.9013 489.191 83.2868 489.191 87.3658H491.191C491.191 83.6606 492.19 80.7864 494.1 78.6412L492.606 77.3112ZM489.191 87.3658V133H491.191V87.3658H489.191ZM490.191 132H470.098V134H490.191V132ZM471.098 133V86.3928H469.098V133H471.098ZM471.098 86.3928C471.098 82.5259 469.98 79.3369 467.654 76.9393L466.218 78.332C468.109 80.2805 469.098 82.9296 469.098 86.3928H471.098ZM467.659 76.9449C465.369 74.5472 462.353 73.3761 458.714 73.3761V75.3761C461.886 75.3761 464.352 76.378 466.213 78.3264L467.659 76.9449ZM458.714 73.3761C456.233 73.3761 453.97 74.008 451.953 75.282L453.021 76.973C454.701 75.9118 456.59 75.3761 458.714 75.3761V73.3761ZM451.957 75.2795C449.974 76.5185 448.413 78.265 447.268 80.4856L449.046 81.4022C450.041 79.4713 451.367 78.0069 453.017 76.9755L451.957 75.2795ZM447.271 80.4799C446.112 82.6918 445.551 85.2571 445.551 88.1442H447.551C447.551 85.5176 448.061 83.2826 449.043 81.4079L447.271 80.4799ZM445.551 88.1442V133H447.551V88.1442H445.551ZM446.551 132H425.826V134H446.551V132ZM564.991 129.789L564.496 130.658L564.502 130.661L564.991 129.789ZM552.245 116.459L551.356 116.918L551.357 116.92L552.245 116.459ZM552.245 75.7383L551.355 75.2812L551.355 75.2812L552.245 75.7383ZM564.845 62.1648L564.334 61.3055L564.332 61.3068L564.845 62.1648ZM597.782 59.6836L597.431 60.6203L597.44 60.6234L597.782 59.6836ZM608.971 66.7379L608.268 67.4487L608.271 67.4522L608.971 66.7379ZM616.464 78.6087L615.527 78.9591L615.528 78.9612L616.464 78.6087ZM619.139 100.939V101.939H620.139V100.939H619.139ZM556.04 100.939H555.04V101.939H556.04V100.939ZM556.04 88.0955V87.0955H555.04V88.0955H556.04ZM599.63 88.0955V89.0955H600.63V88.0955H599.63ZM597.684 80.1655L596.813 80.6563L596.813 80.6563L597.684 80.1655ZM592.284 74.7653L591.779 75.6282L591.786 75.6324L591.793 75.6365L592.284 74.7653ZM575.986 74.9599L576.497 75.8194L576.501 75.8174L575.986 74.9599ZM570.343 80.7493L571.212 81.2429L571.215 81.2379L570.343 80.7493ZM568.251 88.7766L567.251 88.7656V88.7766H568.251ZM570.294 110.572L569.402 111.024L569.406 111.032L570.294 110.572ZM591.506 118.016L591.185 117.069L591.185 117.069L591.506 118.016ZM596.419 115.097L595.73 114.372L595.73 114.372L596.419 115.097ZM599.533 110.329L599.599 109.331L598.861 109.282L598.598 109.974L599.533 110.329ZM618.701 111.594L619.68 111.8L619.918 110.672L618.767 110.596L618.701 111.594ZM612.717 123.659L611.966 123L611.965 123L612.717 123.659ZM601.139 131.638L601.51 132.566L601.513 132.565L601.139 131.638ZM584.841 133.46C577.29 133.46 570.849 131.931 565.481 128.917L564.502 130.661C570.226 133.874 577.018 135.46 584.841 135.46V133.46ZM565.487 128.921C560.143 125.872 556.029 121.571 553.132 115.998L551.357 116.92C554.428 122.828 558.812 127.414 564.496 130.658L565.487 128.921ZM553.133 116C550.237 110.396 548.769 103.732 548.769 95.9769H546.769C546.769 103.984 548.285 110.976 551.356 116.918L553.133 116ZM548.769 95.9769C548.769 88.421 550.235 81.8365 553.134 76.1954L551.355 75.2812C548.287 81.2513 546.769 88.1593 546.769 95.9769H548.769ZM553.134 76.1954C556.036 70.5499 560.108 66.1668 565.359 63.0227L564.332 61.3068C558.749 64.6495 554.422 69.3154 551.355 75.2812L553.134 76.1954ZM565.357 63.0241C570.628 59.8864 576.835 58.2997 584.014 58.2997V56.2997C576.532 56.2997 569.96 57.9564 564.334 61.3055L565.357 63.0241ZM584.014 58.2997C588.834 58.2997 593.304 59.0764 597.431 60.6202L598.132 58.747C593.762 57.1123 589.053 56.2997 584.014 56.2997V58.2997ZM597.44 60.6234C601.588 62.1318 605.194 64.4061 608.268 67.4486L609.675 66.0272C606.392 62.7776 602.538 60.349 598.123 58.7438L597.44 60.6234ZM608.271 67.4522C611.365 70.483 613.788 74.3103 615.527 78.9591L617.4 78.2582C615.572 73.3715 613 69.285 609.671 66.0236L608.271 67.4522ZM615.528 78.9612C617.26 83.5591 618.139 88.9809 618.139 95.2472H620.139C620.139 88.7994 619.235 83.1289 617.399 78.2561L615.528 78.9612ZM618.139 95.2472V100.939H620.139V95.2472H618.139ZM619.139 99.9393H556.04V101.939H619.139V99.9393ZM557.04 100.939V88.0955H555.04V100.939H557.04ZM556.04 89.0955H599.63V87.0955H556.04V89.0955ZM600.63 88.0955C600.63 84.9622 599.948 82.1458 598.556 79.6746L596.813 80.6563C598.016 82.7908 598.63 85.261 598.63 88.0955H600.63ZM598.556 79.6746C597.169 77.2127 595.237 75.281 592.775 73.894L591.793 75.6365C593.937 76.8442 595.605 78.5127 596.813 80.6563L598.556 79.6746ZM592.79 73.9024C590.345 72.4703 587.522 71.7706 584.354 71.7706V73.7706C587.219 73.7706 589.683 74.4006 591.779 75.6282L592.79 73.9024ZM584.354 71.7706C581.047 71.7706 578.076 72.5397 575.472 74.1024L576.501 75.8174C578.761 74.461 581.369 73.7706 584.354 73.7706V71.7706ZM575.475 74.1003C572.924 75.617 570.918 77.6747 569.47 80.2607L571.215 81.2379C572.492 78.9589 574.248 77.1569 576.497 75.8194L575.475 74.1003ZM569.473 80.2557C568.022 82.8132 567.285 85.657 567.251 88.7656L569.251 88.7876C569.281 85.9933 569.94 83.4855 571.212 81.2429L569.473 80.2557ZM567.251 88.7766V100.988H569.251V88.7766H567.251ZM567.251 100.988C567.251 104.807 567.955 108.164 569.402 111.024L571.186 110.121C569.909 107.597 569.251 104.563 569.251 100.988H567.251ZM569.406 111.032C570.885 113.887 572.979 116.107 575.681 117.666L576.681 115.933C574.323 114.573 572.492 112.641 571.182 110.112L569.406 111.032ZM575.681 117.666C578.389 119.228 581.569 119.989 585.181 119.989V117.989C581.853 117.989 579.032 117.29 576.681 115.933L575.681 117.666ZM585.181 119.989C587.578 119.989 589.796 119.651 591.827 118.963L591.185 117.069C589.388 117.678 587.39 117.989 585.181 117.989V119.989ZM591.827 118.963C593.868 118.271 595.634 117.226 597.109 115.821L595.73 114.372C594.48 115.562 592.971 116.463 591.185 117.069L591.827 118.963ZM597.109 115.821C598.587 114.413 599.705 112.695 600.468 110.683L598.598 109.974C597.934 111.725 596.976 113.185 595.73 114.372L597.109 115.821ZM599.467 111.327L618.636 112.592L618.767 110.596L599.599 109.331L599.467 111.327ZM617.723 111.387C616.784 115.83 614.865 119.694 611.966 123L613.469 124.319C616.602 120.748 618.672 116.569 619.68 111.8L617.723 111.387ZM611.965 123C609.097 126.274 605.373 128.848 600.764 130.711L601.513 132.565C606.375 130.6 610.37 127.856 613.47 124.318L611.965 123ZM600.767 130.709C596.205 132.534 590.903 133.46 584.841 133.46V135.46C591.103 135.46 596.666 134.504 601.51 132.566L600.767 130.709Z" fill="white" mask="url(#path-2-outside-1_12_30)"/>
</svg>
